<svg width="2030" height="2259" viewBox="0 0 2030 2259" fill="none" xmlns="http://www.w3.org/2000/svg">
<rect x="50" y="50" width="1930" height="2159" rx="461" fill="#04CCBB" stroke="#04CCBB" stroke-width="100" stroke-linejoin="round"/>
<path d="M595.327 1647.6C602.66 1647.6 608.993 1647.07 614.327 1646C619.793 1644.8 624.46 1643.33 628.327 1641.6C632.193 1639.87 635.46 1638 638.127 1636C640.793 1633.87 643.193 1631.93 645.327 1630.2C647.46 1628.47 649.46 1627.07 651.327 1626C653.193 1624.8 655.193 1624.2 657.327 1624.2C659.46 1624.2 661.193 1624.6 662.527 1625.4C663.993 1626.07 665.06 1626.87 665.727 1627.8L688.527 1655.2C675.86 1670.27 660.793 1681.73 643.327 1689.6C625.993 1697.33 606.26 1701.2 584.127 1701.2C565.727 1701.2 549.393 1698 535.127 1691.6C520.993 1685.07 509.06 1676.13 499.327 1664.8C489.593 1653.47 482.193 1640.07 477.127 1624.6C472.193 1609 469.727 1592.2 469.727 1574.2C469.727 1557.53 471.593 1541.73 475.327 1526.8C479.06 1511.87 484.327 1498.07 491.127 1485.4C497.927 1472.73 506.06 1461.33 515.527 1451.2C525.127 1441.07 535.727 1432.47 547.327 1425.4C558.927 1418.33 571.393 1412.93 584.727 1409.2C598.06 1405.33 611.993 1403.4 626.527 1403.4C637.46 1403.4 647.393 1404.47 656.327 1406.6C665.393 1408.6 673.527 1411.47 680.727 1415.2C688.06 1418.8 694.593 1423.13 700.327 1428.2C706.06 1433.27 711.06 1438.87 715.327 1445L692.527 1471.4C690.927 1473.27 689.06 1474.93 686.927 1476.4C684.793 1477.87 681.993 1478.6 678.527 1478.6C676.26 1478.6 674.193 1478.07 672.327 1477C670.46 1475.93 668.527 1474.67 666.527 1473.2C664.66 1471.6 662.527 1469.87 660.127 1468C657.727 1466.13 654.86 1464.47 651.527 1463C648.193 1461.4 644.193 1460.07 639.527 1459C634.993 1457.93 629.593 1457.4 623.327 1457.4C611.06 1457.4 599.593 1460 588.927 1465.2C578.393 1470.4 569.193 1477.87 561.327 1487.6C553.593 1497.2 547.527 1508.93 543.127 1522.8C538.727 1536.53 536.527 1551.93 536.527 1569C536.527 1581.4 537.993 1592.47 540.927 1602.2C543.993 1611.93 548.127 1620.2 553.327 1627C558.527 1633.67 564.727 1638.8 571.927 1642.4C579.127 1645.87 586.927 1647.6 595.327 1647.6ZM832.723 1530C822.59 1530 813.323 1532.27 804.923 1536.8C796.657 1541.33 789.523 1547.53 783.523 1555.4C777.523 1563.13 772.857 1572.2 769.523 1582.6C766.323 1592.87 764.723 1603.87 764.723 1615.6C764.723 1622.27 765.257 1627.93 766.323 1632.6C767.39 1637.27 768.79 1641.07 770.523 1644C772.39 1646.8 774.523 1648.87 776.923 1650.2C779.457 1651.53 782.19 1652.2 785.123 1652.2C789.657 1652.2 794.057 1650.53 798.323 1647.2C802.59 1643.73 806.59 1639.07 810.323 1633.2C814.19 1627.33 817.723 1620.47 820.923 1612.6C824.123 1604.73 826.857 1596.33 829.123 1587.4L836.523 1530H832.723ZM823.123 1663.4C814.723 1675.13 805.257 1684.4 794.723 1691.2C784.323 1697.87 772.857 1701.2 760.323 1701.2C752.857 1701.2 745.657 1699.73 738.723 1696.8C731.79 1693.73 725.657 1689.2 720.323 1683.2C714.99 1677.07 710.723 1669.33 707.523 1660C704.323 1650.53 702.723 1639.4 702.723 1626.6C702.723 1607.8 706.123 1590 712.923 1573.2C719.857 1556.27 729.457 1541.47 741.723 1528.8C754.123 1516.13 768.79 1506.07 785.723 1498.6C802.657 1491.13 821.257 1487.4 841.523 1487.4C851.39 1487.4 861.39 1488.07 871.523 1489.4C881.657 1490.73 891.657 1493.13 901.523 1496.6L876.323 1698H843.123C839.257 1698 835.99 1697.53 833.323 1696.6C830.79 1695.53 828.723 1694.13 827.123 1692.4C825.657 1690.67 824.59 1688.6 823.923 1686.2C823.39 1683.8 823.123 1681.2 823.123 1678.4V1663.4ZM992.833 1533.4C997.899 1524.47 1003.3 1516.8 1009.03 1510.4C1014.77 1504 1020.63 1499.07 1026.63 1495.6C1032.77 1492 1038.97 1490 1045.23 1489.6C1051.63 1489.07 1058.03 1490.27 1064.43 1493.2L1053.23 1550.6C1045.63 1547.4 1038.5 1545.93 1031.83 1546.2C1025.3 1546.47 1019.23 1548.73 1013.63 1553C1008.17 1557.27 1003.17 1563.67 998.633 1572.2C994.233 1580.73 990.433 1591.67 987.233 1605L976.033 1698H915.233L940.433 1490.6H972.433C978.833 1490.6 983.833 1492.13 987.433 1495.2C991.033 1498.13 992.833 1503 992.833 1509.8V1533.4ZM1178.23 1550.8C1187.56 1550.8 1195.36 1549.47 1201.63 1546.8C1208.03 1544 1213.16 1540.13 1217.03 1535.2C1221.03 1530.13 1223.9 1524.13 1225.63 1517.2C1227.36 1510.27 1228.23 1502.67 1228.23 1494.4C1228.23 1488.67 1227.43 1483.4 1225.83 1478.6C1224.36 1473.8 1222.03 1469.67 1218.83 1466.2C1215.63 1462.73 1211.56 1460.07 1206.63 1458.2C1201.83 1456.2 1196.1 1455.2 1189.43 1455.2H1158.63L1146.83 1550.8H1178.23ZM1195.83 1406.6C1213.16 1406.6 1227.96 1408.73 1240.23 1413C1252.63 1417.13 1262.76 1422.93 1270.63 1430.4C1278.63 1437.73 1284.5 1446.47 1288.23 1456.6C1291.96 1466.6 1293.83 1477.4 1293.83 1489C1293.83 1504.87 1291.36 1519.6 1286.43 1533.2C1281.63 1546.67 1274.23 1558.33 1264.23 1568.2C1254.23 1578.07 1241.56 1585.8 1226.23 1591.4C1210.9 1597 1192.76 1599.8 1171.83 1599.8H1140.83L1128.63 1698H1063.83L1099.43 1406.6H1195.83ZM1413.97 1530C1403.84 1530 1394.57 1532.27 1386.17 1536.8C1377.91 1541.33 1370.77 1547.53 1364.77 1555.4C1358.77 1563.13 1354.11 1572.2 1350.77 1582.6C1347.57 1592.87 1345.97 1603.87 1345.97 1615.6C1345.97 1622.27 1346.51 1627.93 1347.57 1632.6C1348.64 1637.27 1350.04 1641.07 1351.77 1644C1353.64 1646.8 1355.77 1648.87 1358.17 1650.2C1360.71 1651.53 1363.44 1652.2 1366.37 1652.2C1370.91 1652.2 1375.31 1650.53 1379.57 1647.2C1383.84 1643.73 1387.84 1639.07 1391.57 1633.2C1395.44 1627.33 1398.97 1620.47 1402.17 1612.6C1405.37 1604.73 1408.11 1596.33 1410.37 1587.4L1417.77 1530H1413.97ZM1404.37 1663.4C1395.97 1675.13 1386.51 1684.4 1375.97 1691.2C1365.57 1697.87 1354.11 1701.2 1341.57 1701.2C1334.11 1701.2 1326.91 1699.73 1319.97 1696.8C1313.04 1693.73 1306.91 1689.2 1301.57 1683.2C1296.24 1677.07 1291.97 1669.33 1288.77 1660C1285.57 1650.53 1283.97 1639.4 1283.97 1626.6C1283.97 1607.8 1287.37 1590 1294.17 1573.2C1301.11 1556.27 1310.71 1541.47 1322.97 1528.8C1335.37 1516.13 1350.04 1506.07 1366.97 1498.6C1383.91 1491.13 1402.51 1487.4 1422.77 1487.4C1432.64 1487.4 1442.64 1488.07 1452.77 1489.4C1462.91 1490.73 1472.91 1493.13 1482.77 1496.6L1457.57 1698H1424.37C1420.51 1698 1417.24 1697.53 1414.57 1696.6C1412.04 1695.53 1409.97 1694.13 1408.37 1692.4C1406.91 1690.67 1405.84 1688.6 1405.17 1686.2C1404.64 1683.8 1404.37 1681.2 1404.37 1678.4V1663.4ZM1496.48 1698L1532.88 1398.6H1594.08L1557.68 1698H1496.48Z" fill="#F3F4F4"/>
<circle cx="1053.66" cy="790.884" r="302.884" fill="#F3F4F4" stroke="#F3F4F4" stroke-width="100"/>
<path d="M982.884 656.37C1006.67 679.783 1068.3 712.561 1124.49 656.37" stroke="#04CCBB" stroke-width="25"/>
<circle cx="927.272" cy="610.903" r="45.5008" fill="#04CCBB"/>
<circle cx="1180.05" cy="610.903" r="45.5008" fill="#04CCBB"/>
<circle cx="625.083" cy="1010.5" r="229.596" transform="rotate(-31.8771 625.083 1010.5)" fill="#F3F4F4" stroke="#F3F4F4" stroke-width="100"/>
<path d="M521.177 949.607C546.979 955.407 602.156 951.676 616.451 890.358" stroke="#04CCBB" stroke-width="25"/>
<circle cx="464.737" cy="942.287" r="36.0511" transform="rotate(-31.8771 464.737 942.287)" fill="#04CCBB"/>
<circle cx="634.814" cy="836.515" r="36.0511" transform="rotate(-31.8771 634.814 836.515)" fill="#04CCBB"/>
<circle cx="1485.17" cy="995.171" r="208.553" transform="rotate(11.5743 1485.17 995.171)" fill="#F3F4F4" stroke="#F3F4F4" stroke-width="100"/>
<path d="M1454.14 888.213C1467.77 908.516 1507.19 941.103 1555.78 909.03" stroke="#04CCBB" stroke-width="25"/>
<circle cx="1420.91" cy="847.405" r="33.3378" transform="rotate(11.5743 1420.91 847.405)" fill="#04CCBB"/>
<path d="M1574 897.6C1593.17 887.262 1631.5 879.468 1631.5 931M1591.01 873.429L1587.25 849M1626.41 879.667L1639.5 858.669M1646.08 904.984L1670 898.411" stroke="#04CCBB" stroke-width="20"/>
</svg>
